<svg width="19" height="19" viewBox="0 0 19 19" fill="none" xmlns="http://www.w3.org/2000/svg">
<path d="M9.15385 10.4615C14.1885 10.4615 18.3077 13.7308 18.3077 16.3462C18.3077 16.8664 18.101 17.3653 17.7332 17.7332C17.3653 18.101 16.8664 18.3077 16.3462 18.3077H1.96154C1.44131 18.3077 0.942381 18.101 0.574521 17.7332C0.206662 17.3653 0 16.8664 0 16.3462C0 13.7308 4.11923 10.4615 9.15385 10.4615ZM9.15385 0C10.3677 0 11.5319 0.48221 12.3902 1.34055C13.2486 2.19889 13.7308 3.36305 13.7308 4.57692C13.7308 5.7908 13.2486 6.95496 12.3902 7.8133C11.5319 8.67164 10.3677 9.15385 9.15385 9.15385C7.93997 9.15385 6.77581 8.67164 5.91747 7.8133C5.05913 6.95496 4.57692 5.7908 4.57692 4.57692C4.57692 3.36305 5.05913 2.19889 5.91747 1.34055C6.77581 0.48221 7.93997 0 9.15385 0Z" fill="white"/>
</svg>
